<?xml version="1.0" encoding="utf-8"?>
<!-- Generator: Adobe Illustrator 25.2.0, SVG Export Plug-In . SVG Version: 6.00 Build 0)  -->
<svg version="1.1" id="Layer_1" xmlns="http://www.w3.org/2000/svg" xmlns:xlink="http://www.w3.org/1999/xlink" x="0px" y="0px"
	 viewBox="0 0 1200 1200" style="enable-background:new 0 0 1200 1200;" xml:space="preserve">
<style type="text/css">
	.st0{fill:#27AAE1;}
	.st1{fill:none;stroke:#000000;stroke-width:40;stroke-miterlimit:10;}
	.st2{fill:none;stroke:#000000;stroke-width:20;stroke-miterlimit:10;}
	.st3{stroke:#000000;stroke-width:40;stroke-miterlimit:10;}
</style>
<ellipse class="st0" cx="599.75" cy="599.88" rx="500" ry="200"/>
<line class="st1" x1="199.75" y1="699.88" x2="1099.75" y2="699.88"/>
<line class="st1" x1="199.75" y1="399.88" x2="199.75" y2="799.88"/>
<path class="st2" d="M1801.08,1100.75"/>
<path class="st2" d="M1801.08,500.75"/>
<path class="st2" d="M599.75,699.88"/>
<path class="st2" d="M601.08,300.75"/>
<path class="st2" d="M201.08,300.75"/>
<path class="st2" d="M399.75,499.88"/>
<path class="st2" d="M399.75,499.88"/>
<path class="st2" d="M601.08,300.75"/>
<path class="st1" d="M539.75,599.88c88.43,0,160.12-22.39,160.12-50s-71.69-50-160.12-50"/>
<path class="st1" d="M299.75,599.88c0-55.23-22.39-100-50-100s-50,44.77-50,100"/>
<path class="st1" d="M399.75,599.88c0-55.23-22.39-100-50-100s-50,44.77-50,100"/>
<line class="st1" x1="1001.08" y1="799.87" x2="999.82" y2="700.12"/>
<line class="st2" x1="2469.08" y1="364.19" x2="2466.86" y2="364.19"/>
<path class="st1" d="M849.75,699.76c0-110.46,33.88-200,75.67-200c41.79,0,75.67,89.54,75.67,200"/>
<path class="st1" d="M479.75,699.76c-44.18,0-80-44.75-80-99.94"/>
<path class="st1" d="M849.75,499.75C767.05,499.75,700,544.63,700,600"/>
<line class="st1" x1="700" y1="479.88" x2="700" y2="600"/>
<path class="st3" d="M700.25,699.76L700,600v-0.24c0,55.37,67.05,100.25,149.75,100.25"/>
<path class="st3" d="M700.25,699.76l-140.4-93.23l0.18-6.61c0,55.2-35.82,99.94-80,99.94"/>
</svg>
