<?xml version="1.0" encoding="utf-8"?>
<!-- Generator: Adobe Illustrator 25.2.0, SVG Export Plug-In . SVG Version: 6.00 Build 0)  -->
<svg version="1.1" id="Layer_1" xmlns="http://www.w3.org/2000/svg" xmlns:xlink="http://www.w3.org/1999/xlink" x="0px" y="0px"
	 viewBox="0 0 1200 1200" style="enable-background:new 0 0 1200 1200;" xml:space="preserve">
<style type="text/css">
	.st0{fill:#27AAE1;}
	.st1{fill:none;stroke:#000000;stroke-width:40;stroke-miterlimit:10;}
	.st2{fill:none;stroke:#000000;stroke-width:20;stroke-miterlimit:10;}
	.st3{stroke:#000000;stroke-width:40;stroke-miterlimit:10;}
</style>
<rect x="201.1" y="499.9" class="st0" width="798.7" height="190.1"/>
<line class="st1" x1="199.8" y1="699.9" x2="1099.8" y2="699.9"/>
<line class="st1" x1="199.8" y1="399.9" x2="199.8" y2="799.9"/>
<path class="st2" d="M1801.1,1100.8"/>
<path class="st2" d="M1801.1,500.8"/>
<path class="st2" d="M599.8,699.9"/>
<path class="st2" d="M601.1,300.8"/>
<path class="st2" d="M201.1,300.8"/>
<path class="st2" d="M399.8,499.9"/>
<path class="st2" d="M399.8,499.9"/>
<path class="st2" d="M601.1,300.8"/>
<path class="st1" d="M539.8,599.9c88.4,0,160.1-22.4,160.1-50s-71.7-50-160.1-50"/>
<path class="st1" d="M299.8,599.9c0-55.2-22.4-100-50-100s-50,44.8-50,100"/>
<path class="st1" d="M399.8,599.9c0-55.2-22.4-100-50-100s-50,44.8-50,100"/>
<line class="st1" x1="1001.1" y1="799.9" x2="999.8" y2="700.1"/>
<line class="st2" x1="2469.1" y1="364.2" x2="2466.9" y2="364.2"/>
<path class="st1" d="M849.8,699.8c0-110.5,33.9-200,75.7-200s75.7,89.5,75.7,200"/>
<path class="st1" d="M559.8,599.8c0,55.2-35.8,99.9-80,99.9s-80-44.8-80-99.9"/>
<line class="st1" x1="700.2" y1="699.8" x2="549.8" y2="599.8"/>
<path class="st1" d="M849.8,499.8C767,499.8,700,544.6,700,600"/>
<line class="st1" x1="700" y1="479.9" x2="700" y2="600"/>
<path class="st3" d="M700.2,699.8L700,600v-0.2c0,55.4,67,100.2,149.8,100.2"/>
</svg>
